<?xml version="1.0" encoding="UTF-8"?>
<svg xmlns="http://www.w3.org/2000/svg" xmlns:xlink="http://www.w3.org/1999/xlink" version="1.1" viewBox="0 0 460.4 617.8">
  <defs>
    <style>
      .cls-1, .cls-2, .cls-3, .cls-4, .cls-5, .cls-6, .cls-7 {
        fill: none;
      }

      .cls-2 {
        stroke: #fff;
        stroke-width: 3px;
      }

      .cls-2, .cls-3, .cls-4, .cls-8, .cls-6 {
        stroke-miterlimit: 3;
      }

      .cls-2, .cls-4, .cls-5, .cls-6 {
        stroke-linecap: round;
      }

      .cls-9, .cls-10 {
        fill: #f2d2a1;
      }

      .cls-3, .cls-4, .cls-5, .cls-10, .cls-8, .cls-6, .cls-7 {
        stroke: #000;
      }

      .cls-3, .cls-8 {
        stroke-linecap: square;
      }

      .cls-5 {
        stroke-linejoin: round;
      }

      .cls-5, .cls-10, .cls-8, .cls-6, .cls-7 {
        stroke-width: 2px;
      }

      .cls-10, .cls-7 {
        stroke-miterlimit: 10;
      }

      .cls-8 {
        fill: #b1ded3;
      }

      .cls-11 {
        fill: #fff;
      }

      .cls-12 {
        clip-path: url(#clippath);
      }
    </style>
    <clipPath id="clippath">
      <path class="cls-1" d="M268.2,134.7c.7,13.6,4.3,20.6,11,21"/>
    </clipPath>
  </defs>
  <!-- Generator: Adobe Illustrator 28.7.1, SVG Export Plug-In . SVG Version: 1.2.0 Build 142)  -->
  <g>
    <g id="Layer_1">
      <path class="cls-10" d="M343.9,131.6c0,8.6-7,15.7-15.7,15.7s-5.2-.7-7.3-1.8c0,0-.1,0-.2,0,.1,1.8.2,3.6.2,5.5s0,3.7-.2,5.5c-1.9,26.4-17.2,48.8-38.7,59.2v44.6c8.2,2.4,15.7,5.8,22.3,10.1,35.3,23-17.3,37.7-52,31.7-23.1-4-39.5-18-49.3-42,10.9-2.1,21.2-3.5,30.9-4.1v-37.7c-24.6-8.9-42.7-33-44.8-61.8-.1-1.8-.2-3.7-.2-5.5s0-4.5.3-6.7c0,0-.2,0-.3,0-1.6.5-3.2.8-5,.8-8.7,0-15.7-7-15.7-15.7s7-15.7,15.7-15.7,3.4.3,5,.8V49.4h132v68.4c2.2-1.2,4.7-1.8,7.3-1.8,8.6,0,15.7,7,15.7,15.7Z"/>
      <path class="cls-9" d="M189.1,156.4h-.2v-5.5c0,1.8,0,3.7.2,5.5Z"/>
      <path class="cls-9" d="M189.1,144.2c-.2,2.2-.3,4.4-.3,6.7v-6.6c0,0,.2,0,.3,0Z"/>
      <path class="cls-9" d="M320.9,145.5v5.4c0-1.9,0-3.7-.2-5.5,0,0,.1,0,.2,0Z"/>
      <path class="cls-9" d="M320.9,150.9v5.5h-.2c.1-1.8.2-3.7.2-5.5Z"/>
      <g class="cls-12">
        <path class="cls-6" d="M268.2,134.7c.7,13.6,4.3,20.6,11,21"/>
      </g>
      <path d="M254.4,35.4c-27.8.8-49.7,5.5-65.5,14v48.7c28.3-25.6,53.3-6,68-18,14.5-13.6,32.9-9.4,64,18v-48.7c-15.5-8-37.7-12.7-66.5-14Z"/>
      <path d="M225.1,107.9l15.2,1.5c4.2.4,7.4,3.8,7,7.5-.4,3.7-4.1,6.4-8.3,6l-15.2-1.5c-4.2-.4-7.4-3.8-7-7.5.4-3.7,4.1-6.4,8.3-6Z"/>
      <path d="M291.2,106.8l-15.3.3c-4.2,0-7.6,3.2-7.6,6.9,0,3.7,3.6,6.7,7.8,6.6l15.3-.3c4.2,0,7.6-3.2,7.6-6.9,0-3.7-3.6-6.7-7.8-6.6Z"/>
      <circle cx="236.3" cy="132.4" r="5.8"/>
      <circle cx="276.3" cy="132.4" r="5.7"/>
      <path class="cls-5" d="M260.9,121.1c7.7,30.7,9.2,46.8,4.8,48.5-6.8,2.5-14.5,2-14.8-3.2"/>
      <path class="cls-6" d="M247.3,185.9c5.2,5,16.5,5.1,21.2.8"/>
      <path class="cls-6" d="M249.7,78.2c-37.2,4.7-45.7,16.1-39.9,30.6"/>
      <path class="cls-6" d="M252.9,68.8c37.2,4.7,45.7,16.1,39.9,30.6"/>
      <path class="cls-6" d="M263,68.8c37.2,4.7,45.7,16.1,39.9,30.6"/>
      <path class="cls-6" d="M271.4,71.1c37.2,4.7,45.7,16.1,39.9,30.6"/>
      <path class="cls-6" d="M279,73.4c37.2,4.7,45.7,16.1,39.9,30.6"/>
      <path class="cls-6" d="M241.1,77.2c-37.2,4.7-45.7,16.1-39.9,30.6"/>
      <path class="cls-6" d="M230.4,78.3c-37.2,4.7-45.7,16.1-39.9,30.6"/>
      <path class="cls-6" d="M173.2,126.4c2.6-7.2,6.8-9.3,12.6-6.4"/>
      <path class="cls-6" d="M326,121.5c7.5-1.5,11.5,1,12,7.5"/>
      <path class="cls-4" d="M248.6,132.7c-4.3,14-9.9,19.8-16.8,17.3"/>
      <path class="cls-4" d="M311.1,187.9c-17.3,26.4-38.7,37-64.1,31.9"/>
      <path d="M282,215.7v22.6c-23.1-3.7-34.8-9.5-35.2-17.6,11.6,1.4,23.3-.2,35.2-5Z"/>
      <path class="cls-3" d="M282,215.7v22.6c-21.2-3.7-32-9.5-32.3-17.6,10.6,1.4,21.4-.2,32.3-5Z"/>
      <path class="cls-8" d="M186.4,387.8l-36.5,192,280.8,38c-9.6-135.6-22.4-211-38.7-258-13.4-39-42.6-74.4-87-93.3-12,14-29.2,22.7-48.3,22.7s-41.5-11.6-53.5-29.5c0,0-44.9,6.8-78.6,172.8-28.1,138.6-39.7-75.1-39.7-75.1l-62.3,4.6s24.4,193,76.7,190.4,68.8-68.6,68.8-68.6"/>
      <path class="cls-11" d="M188.9,326.4s62.8-39.2,70.4-23.1c7.6,16.1-51.6,146.1-26.5,136.1,25.1-10,68.4-127,99.2-109,30.9,18,47.9,163,32.9,160s-25-131-44-117c-19,14-51.7,112-90.3,103s20.7-134,0-137-85.7,16-41.7-13Z"/>
      <path class="cls-2" d="M332,255.4s113.9-158.1,82.9-213.1"/>
      <path class="cls-2" d="M414.2,41.4s-27-19.2-24.3-29c3.7-13.3,15.8-5.1,19.7.7,10.3,15.3,6.3,22.7,6.3,22.7"/>
      <path class="cls-2" d="M421.6,56.6s20.1-26.4,29.8-23.3c13.2,4.1,4.5,16-1.3,19.6-15.7,9.8-22.9,5.5-22.9,5.5"/>
      <path class="cls-2" d="M417.6,59.6s-33.1,1.2-36.9-8.2c-5.2-12.8,9.5-13.6,16-11.4,17.5,5.9,18.8,14.2,18.8,14.2"/>
      <path class="cls-2" d="M412.4,97.5s-32-8.8-32.8-18.9c-1.1-13.8,13.1-10.2,18.7-6.1,15,10.9,13.7,19.1,13.7,19.1"/>
      <path class="cls-2" d="M417.7,99.1s31.4-10.5,37.8-2.5c8.6,10.8-5.2,15.7-12.2,15.5-18.5-.7-22-8.3-22-8.3"/>
      <path class="cls-2" d="M403.8,124s-32.5-6.5-34-16.6,12.4-11.1,18.2-7.4c15.7,9.8,15,18.1,15,18.1"/>
      <path class="cls-2" d="M412.3,115.3s32.1,8.1,33.2,18.2c1.4,13.8-12.9,10.5-18.6,6.5-15.2-10.6-14.1-18.8-14.1-18.8"/>
      <path class="cls-2" d="M178.9,272.4S60.3,137,71.1,78.2"/>
      <path class="cls-2" d="M71.4,77.2s15.8-23.2,11.6-32.3-12.8-2.3-14.4,3.9c-4.3,16.7.3,23.2.3,23.2"/>
      <path class="cls-2" d="M69.3,93.3s-20.6-22.4-27.1-17.8.1,16.3,5.3,18.9c13.7,7,18.1,1.6,18.1,1.6"/>
      <path class="cls-2" d="M72.9,95.6s24.7-4.3,25.5-14.2c1-13.4-10-11.7-14.3-8.5-11.6,8.7-10.8,16.9-10.8,16.9"/>
      <path class="cls-2" d="M85,131.7s21.7-13.8,20-23.9c-2.2-13.6-11.9-7.8-15.1-2.8-8.7,13.1-5.9,20.9-5.9,20.9"/>
      <path class="cls-2" d="M81.5,134.1s-25.5-5-28.4,3.8c-4,12,7.3,14.5,12.4,13.1,13.5-3.8,14.4-11.7,14.4-11.7"/>
      <path class="cls-2" d="M97.2,156.1s22.6-11.7,21.5-21.8-11.5-8.8-15.1-4.2c-9.4,12.2-7.1,20.2-7.1,20.2"/>
      <path class="cls-2" d="M89,149s-22,13.2-20.5,23.3,11.8,8.1,15.1,3.3c8.9-12.8,6.3-20.7,6.3-20.7"/>
      <path d="M188.9,49.4"/>
      <path class="cls-10" d="M74.3,357.8s-5.9-12.6,18.3-63.3c7.6-15.9,9.5-36.1-16.5,2,0,0-2.3-55.7-11.9-63.6s-8.3,48.8-5.6,54.7c0,0-11-68.7-20.2-66.6s1.8,71.5,3.1,74c0,0-8.6-57.5-17.1-59.4s0,52.6,5.9,63.9c0,0-20.5-28.5-24.5-27-6.1,2.3,24.2,54.7,27.6,69.2s0,19.3,0,19.3l40.9-3Z"/>
      <path class="cls-7" d="M62.2,305.3c-.6.8,4.3-7.9,13.4-6.6,0,0,15.7-25.6,20.6-24,0,0,4.6,1.2-1.3,14.2s-16.9,39.7-18.6,47.3-3.6,15.2-2,21.6"/>
    </g>
  </g>
</svg>