<?xml version="1.0" encoding="UTF-8"?>
<svg xmlns="http://www.w3.org/2000/svg" version="1.1" viewBox="0 0 595.3 486.9">
  <defs>
    <style>
      .cls-1 {
        fill: #fff;
      }
    </style>
  </defs>
  <!-- Generator: Adobe Illustrator 28.7.1, SVG Export Plug-In . SVG Version: 1.2.0 Build 142)  -->
  <g>
    <g id="Layer_1">
      <g>
        <path class="cls-1" d="M468.3,80.2c-9.7,2.6-18.7,5-27.7,7.4-29.2,7.7-58.5,15.5-87.7,23.2-3.9,1-8,1.5-12,1.6-7.4.2-12.9-6.5-13.5-15.8-.5-8.5,4.9-16.3,11.7-17.7,9.5-1.9,19.1-3.7,28.5-6.2,33.9-8.9,67.7-18.1,101.6-27.1,5.5-1.5,11.1-2.6,16.7-3.4,11.5-1.5,19.1,9.6,15.5,22.5-5.6,19.7-11.4,39.3-17.3,58.8-8.4,28.1-16.8,56.2-21.9,85.5-1.9,10.5-2.9,21.2-3.9,31.9-.4,4.4.4,8.8,2.9,13.5,3.1-3.3,6.2-6.2,8.9-9.6,9.1-11.6,15.6-25.2,21.8-39,13.7-30.5,24.2-62.6,35.4-94.4,9.5-27.2,19.7-54.1,29.6-81.2,2.1-5.7,5.1-10.2,10.6-11.5,9.5-2.2,17.8,7.9,15.9,19.6-4,25.2-8.1,50.3-12.2,75.5-8,48.9-16.8,97.6-27.6,145.8-8.5,37.9-17.3,75.6-30.2,111.8-7,19.7-15.2,38.7-26.9,55.3-7.9,11.1-17,20.3-29,24.6-21,7.5-40.9-6.6-45.7-32.2-3.2-17.1-.6-33.4,4.8-49.3,11.1-32.9,29.4-59.6,52.9-81.3,1.3-1.2,2.5-2.3,3.6-3.9-2,.8-4,1.9-6.1,2.5-10.3,3.2-20.3-.9-26.9-11.3-7.3-11.4-9.3-24.7-8.9-38.5.6-18.6,4.5-36.6,8.4-54.5,7-32.1,16.9-63.2,26.3-94.4.7-2.4,1.4-4.8,2.4-8ZM506.1,299.5c-1.1.6-1.7.9-2.2,1.2-12.4,8.9-23.9,19.1-34,31.5-13.1,16-23.4,34.1-29.6,55.2-2.2,7.5-3.5,15.2-2,23.2,1.4,7.6,5.8,10.9,12,8.1,3.5-1.6,6.9-4.1,9.8-6.9,6.6-6.4,11.3-14.6,15.6-23.1,9.6-19,16.5-39.5,22.6-60.4,2.7-9.3,5.2-18.7,7.9-28.7ZM483.7,276.9c-.1,0-.3-.2-.4-.3.4-.3.9-.6,1.3-.9,9.8-6.4,19.6-12.9,29.5-19.1,1.8-1.1,2.7-2.4,3.2-4.7,2.8-13.7,5.8-27.3,8.6-41,1.6-7.7,3-15.5,4.5-23.3-.8.9-1.3,2-1.7,3-8.1,20.7-16.5,41.3-27.6,60.1-5.4,9.1-11.7,17.4-17.6,26.1Z"/>
        <path class="cls-1" d="M247,199.7c2.8-3.1,5-5.4,7.1-7.9,24.3-28.3,47.4-57.8,67.6-90.3,1.9-3.1,3.7-6.4,5.5-9.7,4.4-8.2,11.9-10.9,18.4-6.5,6.6,4.5,9.3,14.9,5.3,22.8-3.8,7.5-8.1,14.6-12.5,21.6-16.3,25.2-34.2,48.9-52.9,71.7-16.4,20-33.6,39-52.1,56.4-.8.8-1.5,2.1-1.8,3.4-1.3,5.2-2.3,10.4-3.7,15.5-.5,2-.1,3.1,1.2,4.4,31.3,31.2,62.6,62.3,93.8,93.6,10.9,11,21.5,22.4,32.1,33.8,4.2,4.5,4.9,10.5,3.4,16.7-1.4,6.1-4.8,10.1-10.1,11.5-4.4,1.2-8.3-.1-11.7-3.6-14.4-14.9-28.7-30.1-43.3-44.8-23.6-23.8-47.4-47.4-71.2-71.1-.8-.8-1.5-1.4-2.6-2.4-2.1,10.1-4.1,19.9-6.2,29.7-5.6,27.2-11.5,54.3-19.8,80.5-2.4,7.6-6.8,11.9-12.5,12.1-10.1.4-16.5-11.4-13.1-23.5,4.2-14.9,8.5-29.8,12-44.9,5.7-24.7,10.7-49.6,15.9-74.5.7-3.3-3.3-7.3-6.2-6.2-5.8,2.2-11.8,3.3-17.9,1.9-11.3-2.6-17.6-11.5-20.4-24.1-2-8.6-2.1-17.5-1.1-26.3,1.2-10.6,11.1-18.7,20.1-12.1,7.5,5.5,14.6,11.8,21.7,18.1,2.5,2.3,4,2.2,6.8.5,7.1-4.5,10.9-10.8,13.1-20.2,10.7-45.2,23.3-89.6,37.1-133.7,3.8-12,14.9-15.8,22.1-7.4,4.6,5.4,5.5,11.9,3.3,19.1-4.6,15.5-9.5,31-14,46.5-4.4,15.2-8.5,30.5-12.7,45.7-.2.9-.4,1.8-.8,3.6Z"/>
        <path class="cls-1" d="M83.9,422c11.6,3.5,23.4,5.3,35.3,4.6,17.8-1,34.4-6.9,49.7-17.5,6.8-4.7,15.1-2.7,19.1,5.3,4.1,8.3,2,19-5.1,23.6-6.9,4.4-13.9,8.7-21.2,12-29.3,13.4-59.1,13.1-89.1,3.1-4.1-1.4-8.2-4.2-12.3-4.2-3.9,0-7.8,2.7-11.8,3.9-9.8,3-19.2,2.1-27-6.3-7-7.5-10.2-17.4-10-28.4.3-13.3,9.7-21.5,20.9-18.1,6.9,2.2,13.6,5.7,20.2,9,2.3,1.2,4,1.3,5.3-1.3,3.3-6.4,7-12.6,9.7-19.4,11.3-28.1,19.3-57.6,26.5-87.4,11.5-47.7,20.7-96.1,28.6-144.8,4.8-29.3,9.1-58.6,13.6-87.9,1.4-9.3,8.2-15.2,15.6-13.7,7.3,1.5,12.4,10.2,11.1,19.3-10.8,75.9-23.2,151.4-40.4,225.7-8.2,35.5-17.5,70.6-30.8,104-2.4,6.1-5.2,12.1-8,18.5Z"/>
      </g>
    </g>
  </g>
</svg>